<svg width="640" height="480" xmlns="http://www.w3.org/2000/svg" xmlns:svg="http://www.w3.org/2000/svg">
 <!-- Created with SVG-edit - http://svg-edit.googlecode.com/ -->
 <g>
  <title>Layer 1</title>
  <path d="m216,143c0.94284,-2.5955 0.99933,-3.51466 1,-4.5c0.00066,-0.98399 0,-1.67467 0,-2.61867c0,-0.74834 0,-1.936 0,-2.57866c0,-0.69867 0.02768,-1.42169 -0.004,-2.81868c-0.01494,-0.65909 -0.093,-1.66389 -0.496,-2.65066c-0.30301,-0.74192 -0.80919,-1.46555 -1.08333,-1.83334c-0.56807,-0.76208 -1.57565,-1.84143 -1.93867,-2.1785c-0.73349,-0.68105 -1.13246,-1.00436 -1.99666,-1.61083c-0.4505,-0.31615 -1.9783,-1.21646 -2.54584,-1.51051c-0.58842,-0.30486 -1.20367,-0.603 -1.84351,-0.8895c-1.31731,-0.58984 -2.0029,-0.86018 -2.696,-1.12534c-1.39093,-0.53212 -2.09413,-0.76863 -2.79466,-0.99733c-0.69519,-0.22695 -1.3889,-0.43705 -2.08051,-0.6255c-0.68314,-0.18615 -2.03102,-0.51672 -3.35416,-0.72916c-0.64325,-0.10329 -1.2803,-0.17681 -2.53067,-0.272c-0.61473,-0.0468 -1.22552,-0.07285 -1.8315,-0.1095c-1.8051,-0.10915 -2.40508,-0.16942 -3.00584,-0.23583c-1.21017,-0.13378 -1.81918,-0.21851 -2.43466,-0.29067c-1.24875,-0.14642 -2.53036,-0.26329 -3.18483,-0.30383c-0.65889,-0.04082 -1.31813,-0.072 -2.61667,-0.10066c-0.62909,-0.01389 -1.23833,-0.01859 -2.89583,-0.02084c-0.93468,-0.00127 -1.36951,0 -2.22917,0c-0.91966,0 -1.4295,0 -3.28833,0c-0.74918,0 -1.55833,0 -2.4225,0c-0.91417,0 -1.87334,0 -2.8725,0c-1.03416,0 -3.1875,0 -4.29651,0c-1.123,0 -2.254,0 -3.38699,0c-1.129,0 -2.248,0 -3.351,0c-1.08101,0 -3.153,-0.00156 -4.134,0.0005c-0.94701,0.00199 -1.86615,0.00672 -2.763,0.03149c-0.8812,0.02434 -1.75282,0.06568 -2.619,0.1395c-0.86995,0.07414 -2.63937,0.3159 -3.54666,0.4935c-0.93028,0.18211 -1.87468,0.40775 -2.82901,0.675c-0.97324,0.27255 -1.95367,0.58778 -2.937,0.94501c-0.99825,0.36265 -2.99586,1.20464 -3.99049,1.67899c-1.00151,0.47764 -1.98958,0.98915 -2.96851,1.512c-0.97208,0.5192 -1.9239,1.04816 -2.8605,1.566c-0.91542,0.50614 -2.6694,1.46204 -3.50667,1.89384c-0.80417,0.41473 -1.58496,0.80042 -2.3355,1.1775c-0.72577,0.36463 -1.42904,0.7198 -2.10149,1.0875c-0.65685,0.35917 -1.90171,1.1223 -2.48467,1.542c-0.5785,0.4165 -1.12971,0.86069 -1.6605,1.3185c-0.52556,0.45331 -1.02821,0.92097 -1.51649,1.39049c-0.48103,0.46254 -1.39976,1.38124 -1.84451,1.82668c-0.43524,0.43591 -0.86106,0.86328 -1.275,1.28549c-0.40604,0.41415 -0.80192,0.82352 -1.185,1.23151c-0.3769,0.4014 -1.09786,1.20204 -1.44016,1.60466c-0.33902,0.39876 -0.66717,0.80212 -0.9855,1.21051c-0.318,0.40796 -0.62797,0.82343 -0.9315,1.24649c-0.30584,0.42627 -0.90655,1.30817 -1.20451,1.76434c-0.30207,0.46248 -0.60133,0.93481 -0.89999,1.41449c-0.30135,0.48399 -0.60066,0.97427 -0.9,1.46851c-0.30067,0.49643 -0.90096,1.49493 -1.19967,1.99567c-0.29862,0.5006 -0.59522,1.00214 -0.879,1.5105c-0.28358,0.508 -0.55637,1.02191 -0.807,1.54649c-0.25076,0.52484 -0.69459,1.60504 -0.87134,2.16434c-0.35626,1.12732 -0.47838,1.71291 -0.60133,2.29933c-0.24755,1.18065 -0.33987,1.78035 -0.54166,2.97917c-0.2022,1.20119 -0.30291,1.80478 -0.41067,2.41066c-0.10857,0.61046 -0.34184,1.84749 -0.47466,2.47467c-0.2718,1.2834 -0.43277,1.93643 -0.76283,3.25833c-0.16497,0.66072 -0.33319,1.31413 -0.4905,1.959c-0.15364,0.62982 -0.53826,2.39571 -0.61834,2.93285c-0.14764,0.99036 -0.20664,1.90178 -0.22166,2.33249c-0.02887,0.82771 -0.02133,2.03217 -0.02133,2.8365c0,0.81633 0,1.65266 0,2.96217c0,0.91866 0,1.39049 0,2.35416c0,0.98367 -0.00317,1.4805 0.00017,2.97917c0.00222,1 0.00201,1.50024 0.03584,2.5c0.01692,0.50017 0.11767,2.00163 0.24933,2.99733c0.0654,0.49457 0.23093,1.4619 0.32533,1.93066c0.18188,0.90315 0.46936,2.13539 0.69833,2.86667c0.33366,1.06563 0.64664,1.78064 1.02434,2.53867c0.42076,0.84447 0.93487,1.73027 1.20833,2.1875c0.5596,0.93567 0.84613,1.40642 1.75867,2.75784c0.29752,0.44061 0.91785,1.29839 1.24133,1.72133c0.32717,0.42778 1.01633,1.2951 1.79167,2.16667c0.82797,0.93071 1.29012,1.39488 1.77066,1.86932c0.4957,0.48941 1.02025,0.98041 1.5765,1.46851c0.57299,0.50279 1.814,1.5029 2.485,1.99567c0.69291,0.50887 1.42788,1.01227 2.2065,1.5105c0.81024,0.51846 1.67144,1.03336 2.5845,1.54649c0.95481,0.53661 3.04,1.6167 4.17217,2.164c1.17707,0.569 2.40266,1.13297 3.666,1.69351c1.28598,0.57059 2.59509,1.12939 3.918,1.67549c1.32244,0.5459 3.95202,1.58174 5.24416,2.06667c1.26924,0.47633 2.52269,0.92902 3.7605,1.3605c1.21857,0.42479 2.42403,0.82933 3.6165,1.21651c1.17688,0.38211 3.49826,1.10361 4.645,1.44432c1.1373,0.33792 2.27116,0.66246 3.40649,0.96451c1.13371,0.30162 2.27393,0.58389 3.4245,0.8385c1.15749,0.25613 3.52197,0.69548 4.73184,0.87566c1.21687,0.18121 2.4359,0.33125 3.64499,0.46051c1.18764,0.12695 2.34631,0.22997 3.46501,0.3165c1.06799,0.08261 3.01495,0.20047 3.87833,0.24533c0.80328,0.04173 1.56699,0.07669 2.31,0.1275c0.74368,0.05086 1.50766,0.11833 2.31,0.2175c0.8645,0.10686 2.85114,0.43661 4.00734,0.66133c1.2626,0.24541 2.6107,0.52954 4.032,0.82651c1.47737,0.30869 2.99365,0.62775 4.536,0.93449c1.54834,0.30794 4.60661,0.86235 6.08801,1.08949c1.43869,0.2206 2.83995,0.40634 4.2,0.58801c1.31995,0.17632 2.60135,0.34297 3.84,0.534c1.20137,0.18527 3.4841,0.62575 4.56017,0.90601c1.04539,0.27226 2.04712,0.58569 3.0105,0.91199c0.93294,0.31598 1.82536,0.64792 2.68651,0.966c0.82819,0.30591 2.38715,0.86548 3.12466,1.09384c0.70398,0.21799 1.38394,0.40311 2.03549,0.5775c0.6248,0.16722 1.2269,0.32118 1.80151,0.48749c0.55472,0.16055 1.59904,0.52216 2.08432,0.74167c0.4735,0.21417 0.91875,0.453 1.33951,0.69751c0.40282,0.23409 0.77524,0.47243 1.1235,0.69749c0.32236,0.20833 0.87769,0.5675 1.116,0.698c0.20616,0.11288 0.39095,0.19855 0.5565,0.2565c0.14388,0.05037 0.27542,0.08006 0.39449,0.0945c0.10913,0.01323 0.31351,0.0135 0.41351,0.0135c0.09999,0 0.2,0 0.29999,0c0.10001,0 0.20001,0 0.3,0c0.10001,0 0.30003,-0.00192 0.4005,0.00067c0.10358,0.00269 0.21434,0.01163 0.33151,0.04199c0.13231,0.0343 0.27907,0.09563 0.4395,0.186c0.18835,0.10611 0.63167,0.43423 0.89282,0.65733c0.29398,0.25113 0.60519,0.54005 0.933,0.858c0.34703,0.33658 0.70111,0.69633 1.05901,1.07399c0.36484,0.38498 1.07967,1.17972 1.422,1.58183c0.33765,0.39661 0.66212,0.79399 0.97501,1.18951c0.30708,0.38818 0.60155,0.7735 0.88499,1.15349c0.27654,0.37071 0.79579,1.08994 1.04033,1.43584c0.23811,0.33679 0.46889,0.66852 0.69601,0.996c0.22554,0.32518 0.67227,0.98206 1.392,1.992c0.51328,0.72025 0.786,1.086 1.33333,1.83333c0.54733,0.74733 1.33664,1.83101 1.81467,2.51468c0.45248,0.64713 0.87564,1.27399 1.284,1.884c0.60262,0.90018 1.0023,1.49329 1.56534,2.36533c0.35411,0.54846 0.99214,1.53012 1.29433,2.21515c0.43895,0.99503 0.48448,1.83609 0.62567,2.70618c0.16335,1.00662 0.36717,1.54446 0.56334,2.41916c0.26646,1.18811 0.31474,1.79471 0.342,2.6955c0.0363,1.19952 0.01067,1.80133 0.01067,2.72086c0,0.63632 0,2.00067 0,2.73633c0,0.76367 0,1.54733 0,2.74283c0,0.79999 0,1.60001 0,2.39999c0,0.80002 0.00595,1.99991 -0.0045,2.7955c-0.0103,0.78375 -0.00377,1.55334 -0.16217,2.63785c-0.14923,1.02173 -0.35452,1.67392 -0.595,2.31934c-0.51622,1.38547 -0.88704,2.09738 -1.23833,2.82648c-0.34348,0.71286 -0.83067,1.68884 -1.116,2.2515c-0.38048,0.75031 -0.75667,1.45892 -1.368,2.45334c-0.33516,0.5452 -0.87297,1.35748 -1.34933,2.14935c-0.43179,0.71777 -0.85222,1.47171 -1.22134,2.02133c-0.68785,1.0242 -1.30544,1.80518 -1.63199,2.22131c-0.66847,0.85187 -0.99979,1.27676 -1.98001,2.42401c-0.55553,0.65018 -1.05638,1.19672 -1.51199,1.668c-0.81259,0.84055 -1.42584,1.43649 -2.05733,2.06799c-0.44934,0.44934 -1.17375,1.19894 -1.74367,1.72116c-0.63174,0.57889 -1.40213,1.16034 -1.84834,1.44418c-0.98727,0.62799 -2.1942,1.20435 -2.85333,1.49417c-0.68483,0.30115 -1.4001,0.58856 -2.136,0.8685c-0.74612,0.28384 -1.50072,0.5603 -3.01599,1.06934c-0.74344,0.24976 -1.47902,0.48318 -2.205,0.70499c-0.71404,0.21814 -1.41907,0.42337 -2.11501,0.61499c-0.6841,0.18835 -2.67908,0.68417 -3.32567,0.82501c-0.63878,0.13913 -1.27592,0.26813 -1.91699,0.375c-1.29869,0.21649 -1.97009,0.29388 -2.65868,0.36002c-1.44366,0.13864 -2.21227,0.16711 -3.02133,0.20667c-0.86293,0.04221 -1.79225,0.08206 -2.799,0.14249c-1.09731,0.06586 -2.29723,0.14859 -3.60899,0.2775c-3.0191,0.29666 -4.73732,0.53864 -6.57867,0.79868c-1.93739,0.27359 -3.9393,0.5799 -5.979,0.90298c-2.05098,0.32489 -4.08316,0.659 -6.069,0.99301c-3.72362,0.62631 -5.41101,0.92148 -6.98799,1.19598c-1.48534,0.25858 -2.89745,0.50742 -4.25551,0.7485c-1.32327,0.23492 -2.63031,0.46909 -3.94049,0.70352c-2.70532,0.4841 -4.13246,0.7388 -5.60268,1c-1.49609,0.26581 -3.00128,0.53226 -4.49849,0.79648c-1.47212,0.2598 -2.90225,0.51154 -4.2735,0.7515c-2.49718,0.43698 -3.59378,0.62756 -4.59067,0.79736c-0.90646,0.15439 -1.73288,0.29221 -2.49001,0.40948c-0.69626,0.10785 -1.34253,0.20285 -1.95,0.27451c-1.13196,0.13351 -1.67859,0.17038 -2.21733,0.20267c-0.53429,0.03201 -1.06795,0.05188 -1.6035,0.06448c-0.54045,0.01273 -1.089,0.01761 -1.6485,0.0195c-1.164,0.00394 -1.77335,0.00134 -2.39867,0.00134c-0.63734,0 -1.28268,0 -1.93201,0c-0.64933,0 -1.29467,0 -1.932,0c-1.23466,0 -1.8255,0.00085 -2.40134,-0.00134c-0.56584,-0.00217 -1.12671,-0.0069 -1.6875,-0.0195c-0.5659,-0.01273 -1.14193,-0.03116 -1.7325,-0.06448c-1.24733,-0.0704 -1.91142,-0.13089 -2.6,-0.20401c-0.70982,-0.07538 -1.43484,-0.1694 -2.1675,-0.29401c-0.74081,-0.12598 -1.48384,-0.27167 -2.21249,-0.474c-1.44544,-0.40137 -2.12868,-0.69543 -2.79601,-0.996c-0.66149,-0.29794 -1.30083,-0.6293 -1.929,-0.9675c-0.6225,-0.33514 -1.22952,-0.68408 -1.839,-1.01248c-1.19659,-0.64474 -1.80004,-0.93005 -2.404,-1.19733c-0.60046,-0.26572 -1.20816,-0.51102 -1.8195,-0.7485c-0.61401,-0.23853 -1.23679,-0.4678 -1.86449,-0.70352c-1.28226,-0.48151 -1.93628,-0.73779 -2.59867,-1c-0.66895,-0.2648 -1.34048,-0.53415 -2.016,-0.79648c-0.67384,-0.26169 -1.34431,-0.51959 -2.016,-0.7515c-1.31165,-0.45285 -1.96049,-0.63089 -2.592,-0.80002c-0.61122,-0.1637 -1.20297,-0.30676 -1.767,-0.44849c-0.53462,-0.13434 -1.03892,-0.25516 -1.497,-0.4035c-0.80284,-0.25998 -1.1272,-0.42737 -1.40133,-0.60001c-0.24728,-0.1557 -0.45179,-0.32669 -0.62251,-0.49649c-0.15565,-0.15482 -0.27959,-0.31274 -0.3975,-0.45151c-0.20313,-0.23904 -0.30273,-0.33209 -0.40666,-0.39868c-0.09666,-0.06192 -0.19869,-0.10339 -0.3,-0.129c-0.09893,-0.02499 -0.19987,-0.03516 -0.3,-0.039c-0.19987,-0.00766 -0.3,-0.00281 -0.39999,-0.004l-0.5,-0.05582l-0.7,-0.40018" id="svg_1" stroke-width="5" stroke="#000000" fill="none"/>
  <path d="m262,127c0.28934,2.06267 0.45706,2.76463 0.71866,3.612c0.15106,0.48932 0.77759,2.22281 1.04617,2.89633c0.28976,0.72664 0.61374,1.50082 0.96451,2.325c0.37277,0.87587 0.77414,1.80023 1.19849,2.77501c0.44629,1.02522 1.40555,3.22498 1.91583,4.40016c0.53241,1.22615 1.08694,2.5051 1.67102,3.83549c0.60849,1.38599 1.24728,2.82684 1.92297,4.3215c0.70288,1.55476 2.22525,4.83629 3.04852,6.56416c0.85263,1.78952 1.74591,3.63185 2.66849,5.52901c0.94839,1.9502 1.92535,3.94867 2.9205,5.99699c1.01688,2.09302 3.09479,6.40944 4.14618,8.63c1.06601,2.25142 2.13354,4.53296 3.20398,6.83701c1.0769,2.31796 2.15063,4.64742 3.22202,6.981c1.06995,2.33041 3.18573,6.96312 4.23032,9.25099c1.03006,2.25612 2.04044,4.46902 3.03302,6.62401c0.96219,2.08899 1.89395,4.09821 2.79898,6.01199c0.85788,1.8141 2.44962,5.07977 3.18384,6.51083c0.681,1.32736 1.34494,2.56715 1.99051,3.7545c0.63412,1.16631 1.28137,2.33319 1.93649,3.5385c0.68771,1.26527 2.18445,4.10298 3.00766,5.72583c0.88248,1.73965 1.79346,3.57814 2.7345,5.481c0.95929,1.93979 1.91898,3.89186 2.87851,5.823c0.93787,1.8875 2.71851,5.41266 3.55099,6.99533c0.77203,1.46776 1.5062,2.8185 2.20651,4.05901c0.64917,1.1499 1.26984,2.20642 1.8645,3.177c0.5538,0.90387 1.59973,2.51355 2.09351,3.23682c0.46646,0.68329 0.91953,1.32202 1.34998,1.92752c0.40958,0.57614 0.80334,1.12433 1.17001,1.6575c0.35324,0.51364 0.99649,1.51877 1.28067,2.02283c0.28116,0.49872 0.5405,1.00711 0.79199,1.521c0.25388,0.51877 0.50076,1.05093 0.75601,1.59299c0.26208,0.55661 0.82477,1.72067 1.13748,2.32852c0.32318,0.6282 0.66562,1.26776 1.01852,1.91849c0.35809,0.66028 0.72415,1.32391 1.09048,1.99051c0.36566,0.66541 1.08295,1.98074 1.42667,2.6265c0.33759,0.63425 0.66464,1.25986 0.9855,1.875c0.31546,0.60486 0.62442,1.20047 0.93149,1.785c0.30231,0.57547 0.90277,1.69598 1.20435,2.23999c0.29712,0.53595 0.595,1.06036 0.8895,1.57501c0.28918,0.50537 0.57516,0.99973 0.85352,1.48499c0.27231,0.47473 0.79272,1.3938 1.03549,1.84033c0.23715,0.43619 0.46362,0.86688 0.67499,1.29602c0.20862,0.42358 0.40497,0.84854 0.58502,1.27798c0.17999,0.42929 0.49899,1.31274 0.64066,1.76883c0.14371,0.46259 0.27542,0.93625 0.41699,1.41452c0.14371,0.48541 0.29391,0.97729 0.47101,1.46848c0.18015,0.49963 0.6232,1.50082 0.897,1.99503c0.27817,0.50208 0.58911,0.99026 0.91199,1.46848c0.31921,0.47278 0.64688,0.92484 0.966,1.3605c0.30493,0.41629 0.86084,1.16953 1.09366,1.50717c0.21228,0.30789 0.39932,0.5961 0.56702,0.867c0.15756,0.25452 0.30164,0.50116 0.44098,0.741c0.138,0.23749 0.42209,0.72354 0.57767,0.97784c0.16174,0.2644 0.33197,0.53528 0.50403,0.81448c0.17529,0.28445 0.35144,0.57343 0.52197,0.8685c0.17084,0.29559 0.48932,0.89395 0.63135,1.1955c0.14059,0.29849 0.2695,0.59964 0.396,0.90002c0.12616,0.29965 0.24896,0.60071 0.37799,0.89999c0.12964,0.30072 0.41107,0.90152 0.56866,1.20016c0.15973,0.30273 0.33148,0.60428 0.50403,0.91049c0.17477,0.31012 0.35229,0.62375 0.52197,0.9465c0.17169,0.32657 0.49106,1.00748 0.63116,1.36401c0.14127,0.35953 0.26678,0.7262 0.38553,1.09348c0.11758,0.36371 0.22516,0.72406 0.33148,1.0755c0.10303,0.34055 0.30185,0.97742 0.40433,1.26669c0.09637,0.27203 0.19461,0.52475 0.28952,0.7605c0.08881,0.22055 0.17542,0.42502 0.25348,0.61649c0.07254,0.17789 0.19278,0.49881 0.23584,0.64435c0.0394,0.13321 0.06784,0.25586 0.09601,0.3645c0.02463,0.095 0.04486,0.17746 0.078,0.23849c0.02689,0.0495 0.11588,0.0928 0.16916,0.07516c0.06992,-0.02316 0.14749,-0.08533 0.2355,-0.17102c0.10922,-0.10632 0.22797,-0.2486 0.36151,-0.42297c0.15625,-0.20401 0.51608,-0.72797 0.72415,-1.04819c0.2294,-0.35303 0.47156,-0.73819 0.729,-1.14749c0.26987,-0.42905 0.54831,-0.87396 0.83701,-1.32751c0.29266,-0.45981 0.88892,-1.3739 1.19165,-1.81866c0.30261,-0.44458 0.6163,-0.89105 0.94202,-1.34848c0.3396,-0.47693 0.70139,-0.97733 1.086,-1.5105c0.41272,-0.57214 1.33832,-1.86127 1.85733,-2.59018c0.55569,-0.78043 1.14139,-1.60626 1.758,-2.466c0.63803,-0.88962 1.29575,-1.79947 1.974,-2.71799c0.68442,-0.92685 2.07846,-2.75681 2.78168,-3.6445c0.69418,-0.87628 1.39178,-1.73264 2.07898,-2.58151c0.68011,-0.84012 1.35394,-1.67236 2.00702,-2.50949c0.64825,-0.83093 1.88855,-2.51334 2.47198,-3.37384c0.58459,-0.86221 1.14859,-1.74701 1.71301,-2.646c0.57364,-0.9137 1.14954,-1.85223 1.74899,-2.80801c0.61646,-0.98291 1.94177,-3.02753 2.66632,-4.08899c0.74997,-1.09869 1.54175,-2.22067 2.358,-3.375c0.83841,-1.18567 1.70166,-2.39789 2.57401,-3.64499c0.89038,-1.27286 2.6886,-3.91068 3.58167,-5.27933c0.90439,-1.38599 1.79736,-2.79895 2.67902,-4.233c0.88571,-1.44064 1.755,-2.89536 2.60699,-4.35901c0.84933,-1.45905 2.48624,-4.37415 3.271,-5.82169c0.77518,-1.42984 1.52426,-2.84911 2.25,-4.25398c0.7142,-1.38251 1.40329,-2.7477 2.07001,-4.092c0.65323,-1.31708 1.89255,-3.87479 2.48016,-5.11151c0.57367,-1.20732 1.12756,-2.39151 1.66049,-3.5565c0.52335,-1.14404 1.02917,-2.27431 1.51651,-3.39449c0.48196,-1.10786 1.40323,-3.31201 1.84433,-4.41251c0.43753,-1.09154 0.85779,-2.17317 1.2645,-3.237c0.39691,-1.03821 0.77524,-2.04779 1.13849,-3.021c0.34741,-0.93079 0.98407,-2.64355 1.27634,-3.41501c0.27451,-0.72452 0.53961,-1.41283 0.80252,-2.076c0.25879,-0.6528 0.5246,-1.30484 0.80249,-1.96799c0.2887,-0.6889 0.93643,-2.18448 1.30249,-3.01434c0.39386,-0.89285 0.82013,-1.84862 1.27502,-2.871c0.48511,-1.09027 1.00107,-2.25018 1.54498,-3.48299c0.57614,-1.30583 1.81693,-4.14816 2.47867,-5.686c0.68768,-1.59813 1.3876,-3.24104 2.091,-4.911c0.70596,-1.67604 1.40045,-3.34273 2.073,-4.983c0.65268,-1.59177 1.84393,-4.56708 2.36465,-5.9205c0.48428,-1.25873 0.92249,-2.43718 1.31702,-3.54451c0.37048,-1.03978 0.70593,-2.02649 1.01099,-2.96849c0.29211,-0.90208 0.81558,-2.63475 1.05817,-3.48016c0.23871,-0.83195 0.46484,-1.6512 0.68552,-2.45401c0.21564,-0.78453 0.42358,-1.54982 0.6315,-2.29199c0.20148,-0.71915 0.60095,-2.07713 0.80432,-2.7115c0.19543,-0.6096 0.39465,-1.19336 0.58951,-1.7565c0.18884,-0.54584 0.37643,-1.07539 0.5535,-1.5945c0.17358,-0.50891 0.49493,-1.51224 0.63565,-2.01384c0.14059,-0.50111 0.26807,-1.0078 0.38553,-1.521c0.1189,-0.51949 0.228,-1.05016 0.33148,-1.593c0.10596,-0.55582 0.30542,-1.71884 0.40466,-2.32866c0.10211,-0.62752 0.20337,-1.2715 0.31052,-1.929c0.10916,-0.66985 0.22247,-1.34984 0.3465,-2.037c0.12531,-0.69418 0.40512,-2.09198 0.56433,-2.79083c0.15945,-0.69984 0.33237,-1.39653 0.5145,-2.08951c0.18155,-0.6907 0.37234,-1.37534 0.56851,-2.0535c0.19452,-0.6725 0.59421,-1.99089 0.7955,-2.63567c0.19873,-0.63657 0.39911,-1.26462 0.59998,-1.8855c0.19913,-0.61546 0.39957,-1.22549 0.60001,-1.8315c0.19955,-0.60332 0.60016,-1.80446 0.79984,-2.40417c0.19901,-0.59761 0.3963,-1.19112 0.58951,-1.77899c0.19046,-0.57947 0.37582,-1.14897 0.5535,-1.707c0.17297,-0.5433 0.49231,-1.58047 0.6355,-2.07083c0.13675,-0.46834 0.26172,-0.91522 0.375,-1.33951c0.10663,-0.3994 0.20175,-0.77423 0.285,-1.1235c0.07663,-0.32144 0.19711,-0.8801 0.24017,-1.116c0.03802,-0.20816 0.06635,-0.39275 0.08548,-0.5565c0.01697,-0.14529 0.02533,-0.27599 0.03152,-0.39449l0.00314,-0.10951" id="svg_2" stroke-width="5" stroke="#000000" fill="none"/>
  <path d="m578,143c-0.90399,-1.38933 -1.57098,-1.70215 -2.86469,-1.87883c-0.80713,-0.11023 -1.25464,-0.09879 -2.20331,-0.18251c-0.50305,-0.0444 -2.10022,-0.26439 -2.65466,-0.38133c-1.16949,-0.24669 -1.78711,-0.41208 -2.44403,-0.55733c-0.69507,-0.15367 -1.43542,-0.3103 -2.23199,-0.43201c-1.76306,-0.26938 -2.75085,-0.33429 -3.79596,-0.39732c-1.09595,-0.06609 -2.2359,-0.10387 -3.40955,-0.129c-1.19836,-0.02565 -2.41296,-0.03516 -3.63446,-0.039c-2.42804,-0.00763 -3.61835,-0.00267 -4.79071,-0.00267c-1.15631,0 -2.29865,0 -3.42896,0c-1.12036,0 -2.23267,0 -3.33905,0c-2.20264,0 -3.30145,0 -4.39331,0c-1.07782,0 -2.13464,0 -3.16351,0c-0.99384,0 -1.94562,0 -2.84845,0c-1.63068,0 -2.34637,-0.00101 -2.99603,0.00133c-0.58765,0.00211 -1.11737,0.00595 -1.59302,0.0195c-0.42578,0.01213 -0.80627,0.02626 -1.14301,0.0645c-0.5675,0.06444 -0.80377,0.12883 -1.01331,0.20134c-0.19659,0.06804 -0.37805,0.15625 -0.552,0.255c-0.17822,0.1012 -0.35651,0.22235 -0.552,0.345c-0.70734,0.44373 -1.3269,0.77437 -2.03131,1.17583c-0.79065,0.45059 -1.22241,0.68492 -2.53802,1.58051c-0.46863,0.31902 -1.40637,1.02592 -1.87866,1.39867c-0.47711,0.37659 -1.42261,1.15346 -2.33331,1.95833c-0.44879,0.39664 -1.32007,1.20743 -1.75201,1.62134c-0.43701,0.41875 -0.87799,0.84863 -1.784,1.74933c-0.96616,0.96051 -1.47318,1.47183 -1.99734,1.996c-0.53418,0.53416 -1.07333,1.07335 -1.61249,1.6125c-0.53418,0.53416 -1.05841,1.05827 -1.5675,1.56749c-1.3895,1.38983 -1.81268,1.79599 -2.57733,2.62001c-0.38174,0.41139 -0.77524,0.83527 -1.52802,1.82666c-0.87549,1.15297 -1.31711,1.85432 -1.80399,2.60533c-0.52045,0.80281 -1.05533,1.66196 -1.60651,2.56801c-0.57297,0.94189 -1.15466,1.91986 -1.74149,2.92799c-1.20355,2.06764 -1.79874,3.12538 -2.39468,4.192c-0.59973,1.07338 -1.19467,2.15787 -1.78049,3.255c-0.58887,1.10286 -1.17163,2.21599 -1.7355,3.345c-1.13477,2.27203 -1.66953,3.4315 -2.19601,4.59467c-0.52484,1.15955 -1.02814,2.31982 -1.50598,3.47699c-0.47141,1.14159 -0.91962,2.27014 -1.32602,3.38701c-0.78098,2.14621 -1.09985,3.18808 -1.40265,4.19867c-0.29437,0.98251 -0.56018,1.94724 -0.81302,2.89349c-0.24844,0.92976 -0.48206,1.84985 -0.72299,2.7585c-0.47882,1.80574 -0.73666,2.70465 -1.00266,3.60133c-0.26538,0.89465 -0.53992,1.78178 -0.81601,2.661c-0.27325,0.87012 -0.54828,1.72704 -0.81601,2.571c-0.5192,1.63675 -0.76523,2.42657 -0.996,3.19867c-0.22485,0.75227 -0.43588,1.48795 -0.62549,2.2095c-0.18494,0.70384 -0.35541,1.39389 -0.49051,2.07449c-0.26144,1.31702 -0.33496,1.96603 -0.40399,2.604c-0.06824,0.63075 -0.11734,1.25867 -0.168,1.884c-0.05066,0.62534 -0.0961,1.25366 -0.168,1.884c-0.14655,1.28496 -0.26794,1.93872 -0.40268,2.59999c-0.13654,0.67017 -0.29663,1.34254 -0.47098,2.01601c-0.17499,0.6759 -0.36365,1.34842 -0.561,2.01601c-0.39008,1.31949 -0.59726,1.96263 -0.79602,2.59999c-0.1969,0.6313 -0.39294,1.25798 -0.58047,1.884c-0.18713,0.62466 -0.3707,1.25079 -0.53552,1.884c-0.33292,1.27905 -0.46964,1.9375 -0.59998,2.61066c-0.13419,0.69287 -0.25452,1.41524 -0.3645,2.17201c-0.11557,0.79523 -0.22214,1.63734 -0.31952,2.532c-0.21408,1.96666 -0.30377,3.05026 -0.39999,4.188c-0.09955,1.17726 -0.19296,2.37982 -0.28049,3.5925c-0.08713,1.20732 -0.1676,2.39474 -0.2355,3.5475c-0.12601,2.13959 -0.16672,3.10104 -0.20001,3.98932c-0.03082,0.82208 -0.05148,1.5853 -0.06448,2.29651c-0.01218,0.66614 -0.01758,1.29434 -0.0195,1.89151c-0.00363,1.12933 -0.00134,1.6745 -0.00134,2.21066c0,0.52817 0,1.04932 0,1.56448c0,0.51016 0,1.01636 0,1.5195c0,1.00134 -0.00082,1.5015 0.00134,2.00269c0.00217,0.50314 0.0069,1.0094 0.0195,1.5195c0.01273,0.51523 0.03055,1.03665 0.06448,1.56448c0.06955,1.08215 0.13193,1.63669 0.20132,2.20001c0.07053,0.57242 0.15558,1.1514 0.255,1.7355c0.10052,0.59061 0.21313,1.18512 0.345,1.78049c0.26617,1.20181 0.42957,1.79968 0.60001,2.39468c0.16959,0.59204 0.35312,1.17441 0.55499,1.74149c0.19827,0.55695 0.40625,1.09723 0.64502,1.60651c0.4541,0.96854 0.72742,1.39612 0.996,1.79999c0.25876,0.38907 0.52988,0.74963 0.79648,1.09351c0.25748,0.33209 0.56003,0.61465 1.1875,1.5625c0.57938,0.87521 0.83197,1.53329 1.19583,2.15717c0.60153,1.03134 1.18884,1.73468 1.51352,2.10449c0.69467,0.79129 1.08792,1.189 1.91333,2.02499c0.87305,0.88425 1.32809,1.3385 1.79733,1.79333c0.95148,0.92224 1.44797,1.36591 1.95999,1.78668c0.50818,0.41763 0.98495,0.89471 2.67633,1.74765c0.55823,0.28152 1.1709,0.47861 1.80902,0.66302c0.67261,0.19437 1.40152,0.35733 2.18698,0.51898c0.84918,0.17477 2.7811,0.53662 3.87418,0.74634c1.17224,0.22491 2.4119,0.46487 3.7095,0.70801c1.34274,0.25159 2.72046,0.5036 4.1235,0.74399c1.41431,0.24231 4.23944,0.67975 5.63083,0.86234c1.37134,0.17996 2.72809,0.33401 4.07098,0.47101c1.32977,0.13565 2.65045,0.25342 3.96301,0.36301c1.30609,0.10904 3.909,0.30923 5.20801,0.40881c1.29297,0.09909 2.57391,0.19681 3.83698,0.28952c1.23895,0.09094 2.44788,0.17679 3.62103,0.25348c1.13086,0.07391 3.24286,0.19388 4.2135,0.23569c0.91333,0.03934 1.77295,0.06683 2.58148,0.08548c0.76044,0.01752 1.47601,0.02676 2.14948,0.03152c0.63452,0.00449 1.79852,0.00449 2.33386,0.00449c0.50732,0 0.98865,0 1.44598,0c0.43536,0 0.85065,0 1.24799,0c0.38135,0 1.104,0 1.44885,0c0.33386,0 0.6557,0 0.96448,0c0.29486,0 0.57471,0 0.8385,0c0.24689,0 0.68555,0 0.87604,0c0.17346,0 0.33301,0 0.48151,0c0.1405,0 0.276,0 0.40948,0c0.57367,0 1.31433,0 2.0238,0c1.19604,0 1.87872,0 2.92267,0c0.97205,0 1.7865,0 2.63922,0c0.93146,0 1.64746,0.00589 2.87366,-0.00034c0.87836,-0.00446 1.37329,-0.00647 2.4458,-0.07166c0.5697,-0.03461 1.16223,-0.0455 2.94568,-0.37085c0.5965,-0.10883 1.18005,-0.24637 2.276,-0.578c0.51196,-0.15491 1.41302,-0.49649 2.617,-1.10049l0.4455,-0.46201l0.31049,-0.642" id="svg_3" stroke-width="5" stroke="#000000" fill="none"/>
  <path d="m500,231c0.86401,0 1.6875,0 2.45651,0c0.45947,0 2.17484,0 2.87415,0c0.77533,0 1.63467,0 2.586,0c1.05133,0 2.21066,0 3.48602,0c2.93063,0 4.59897,0 6.39731,0c1.91833,0 3.94666,0 6.07501,0c2.21832,0 4.51666,0 6.88501,0c4.90668,0 7.42499,0 9.97333,0c2.56836,0 5.14667,0 7.72498,0c2.56836,0 5.1167,0 7.63501,0c4.90668,0 7.27704,0 9.58936,0c2.25635,0 4.45868,0 6.60901,0c2.10034,0 4.15265,0 6.159,0c3.88263,0 5.76233,0 7.59998,0c1.7937,0 3.54132,0 5.24103,0c1.64966,0 3.24731,0 4.79095,0c2.91736,0 4.28754,0 5.59869,0c1.25317,0 2.44934,0 3.58948,0c1.08521,0 2.11633,0 3.09454,0c1.80133,0 2.62732,0 3.4093,0c0.74402,0 1.45599,0 2.14203,0c0.66595,0 1.31799,0 1.96198,0c1.28802,0 1.94232,0 2.60266,0c0.66235,0 1.32269,0 1.97699,0c0.64435,0 1.27466,0 1.88702,0c1.15466,0 1.69031,0 2.20001,0c0.48767,0 0.95734,0 1.41296,0l0.44568,0l0.4397,0l0.43762,0" id="svg_4" stroke-width="5" stroke="#000000" fill="none"/>
  <path d="m575,243c0,1.02083 0,1.97966 0,2.84134c0,0.55466 0.0025,1.80984 -0.00269,2.36133c-0.01215,1.29207 -0.03436,2.0267 -0.06934,2.81599c-0.03735,0.84174 -0.07745,1.73393 -0.26129,3.64801c-0.09808,1.02097 -0.23309,2.07887 -0.37201,3.17549c-0.14368,1.13406 -0.29865,2.30319 -0.44403,3.50851c-0.14941,1.23834 -0.3125,2.50818 -0.51733,5.14932c-0.10577,1.3634 -0.16998,2.75574 -0.21899,4.17151c-0.04974,1.43625 -0.07666,2.89093 -0.09296,4.3605c-0.01642,1.48145 -0.02002,2.97198 -0.02136,5.96799c-0.00067,1.49884 0,2.99066 0,4.46851c0,1.45682 0,2.88565 0,4.27948c0,1.35184 0,2.65469 0,5.08536c0,1.11581 0,2.16666 0,3.1575c0,0.93582 0,1.82166 0,2.66248c0,0.80084 0,1.56668 0,3.01334c0,0.69034 0,1.36267 0,2.01901c0,0.64233 0,1.27267 0,1.89301c0,0.61234 0.00018,1.21866 0,2.42133c-0.00012,0.60001 0.00012,1.20001 -0.00452,1.79999c-0.0047,0.60001 -0.01331,1.2001 -0.03149,1.80002c-0.01819,0.6001 -0.03552,1.20099 -0.13068,2.39999c-0.04773,0.60092 -0.11566,1.20285 -0.18597,1.80899c-0.07104,0.61252 -0.14899,1.23248 -0.22198,1.86301c-0.07434,0.64215 -0.15649,1.29745 -0.25867,2.66135c-0.05304,0.7081 -0.08478,1.4292 -0.1095,2.15399c-0.0246,0.72055 -0.03821,1.42929 -0.04651,2.11801c-0.00793,0.66061 -0.00964,1.28531 -0.01068,2.39465c-0.00043,0.47116 0.0011,0.88943 -0.00897,1.26151c-0.00903,0.33328 -0.02539,0.63525 -0.06305,0.91049c-0.03546,0.25922 -0.07806,0.51266 -0.26129,0.99466c-0.09851,0.25906 -0.23236,0.51852 -0.37201,0.78601c-0.14301,0.27393 -0.29584,0.54672 -0.44403,0.82199c-0.14648,0.27206 -0.30164,0.53314 -0.51733,1.05869c-0.09918,0.2417 -0.21313,0.47348 -0.29163,1.14581c-0.11853,1.0148 -0.04169,1.84216 -0.04169,2.53519c0,1.12814 0,1.7865 0,2.79898l0,0.63333l0,1.18185l0.00018,0.97131" id="svg_5" stroke-width="5" stroke="#000000" fill="none"/>
 </g>
</svg>